<svg width="36" height="44" viewBox="0 0 36 44" fill="none" xmlns="http://www.w3.org/2000/svg">
<path d="M34.385 4.95278L18.9561 0.151329C18.31 -0.0504429 17.6846 -0.0504429 17.0386 0.151329L1.61497 4.95278C0.649734 5.25357 0 6.13355 0 7.14798V18.1111C0 24.9845 1.54404 30.4024 4.71237 34.6734C7.33181 38.2026 10.9965 40.9772 16.6035 43.6656C17.0627 43.8898 17.5314 44 18 44C18.4686 44 18.9372 43.8898 19.3965 43.6693C24.9977 40.9809 28.6646 38.2064 31.2876 34.6772C34.4616 30.4063 36 24.9863 36 18.1148V7.15363C36 6.13915 35.3502 5.25357 34.385 4.95278ZM35.1019 18.115C35.1019 33.0708 27.3686 38.8494 19.0082 42.8602C18.3491 43.176 17.6564 43.176 16.9955 42.8602C8.63128 38.8491 0.897937 33.0703 0.897937 18.115V7.15382C0.897937 6.52794 1.28441 6.00107 1.88186 5.81425L17.307 1.00707C17.7793 0.859474 18.22 0.859474 18.6885 1.00707L34.1122 5.81425C34.7097 6.00108 35.0961 6.52608 35.0961 7.15382V18.115H35.1019ZM32.406 7.77606L18.1346 3.32768C18.0488 3.29965 17.9535 3.29965 17.8677 3.32768L3.59634 7.77606C3.40964 7.83397 3.28082 8.00959 3.28082 8.20577V18.1205C3.28082 24.0282 4.42342 28.4523 6.87108 32.0485C9.1507 35.3964 12.5205 38.0365 17.8063 40.6087C17.866 40.6367 17.9332 40.6517 18.0004 40.6517C18.0676 40.6517 18.1349 40.6367 18.1965 40.6087C23.4822 38.0305 26.8518 35.3907 29.1316 32.0427C31.5793 28.4463 32.7219 24.0167 32.7219 18.1148V8.20003C32.7219 8.00385 32.5927 7.83211 32.406 7.77606ZM31.8234 18.115C31.8234 28.8763 28.0707 34.7448 18 39.6993C7.9294 34.7448 4.17648 28.8763 4.17648 18.115V8.53652L18 4.23201L31.8234 8.53652V18.115ZM14.1706 9.42947C13.1437 10.457 12.5799 11.8153 12.5799 13.2613V17.0352H12.5369C11.1796 17.0352 10.0762 18.1394 10.0762 19.4976V29.2535C10.0762 30.6118 11.1796 31.7159 12.5369 31.7159H23.4625C24.8199 31.7159 25.9233 30.6118 25.9233 29.2535V19.4976C25.9233 18.1394 24.8199 17.0352 23.4625 17.0352H23.4196V13.2613C23.4196 11.8171 22.8558 10.4589 21.8289 9.42947C20.8021 8.40194 19.4447 7.83771 17.9997 7.83771C16.5565 7.83771 15.1993 8.40194 14.1706 9.42947ZM25.0254 19.4977V29.2537C25.0254 30.115 24.3234 30.8174 23.4628 30.8174L12.5371 30.8193C11.6764 30.8193 10.9745 30.1168 10.9745 29.2555V19.4996C10.9745 18.6383 11.6765 17.9359 12.5371 17.9359H23.4628C24.3235 17.934 25.0254 18.6327 25.0254 19.4977ZM20.2029 17.0354H15.7911V13.2614C15.7911 12.6785 16.0207 12.1237 16.4408 11.7014C16.8609 11.2811 17.4116 11.0513 17.9998 11.0513C18.5823 11.0513 19.1368 11.2811 19.5587 11.7014C19.9788 12.1218 20.2084 12.6729 20.2084 13.2614V17.0354H20.2029ZM22.5217 13.2614V17.0354H21.1028V13.2614C21.1028 12.4338 20.7779 11.6584 20.1898 11.0718C19.6016 10.4833 18.8231 10.1582 18.0016 10.1582C17.1745 10.1582 16.3997 10.4833 15.8135 11.0718C15.2254 11.6604 14.9005 12.4394 14.9005 13.2614V17.0354H13.4815V13.2614C13.4815 12.0564 13.9539 10.9224 14.8108 10.0667C15.6659 9.21099 16.8048 8.73649 18.0034 8.73649C19.2077 8.73649 20.3409 9.20917 21.196 10.0667C22.053 10.9224 22.5217 12.0564 22.5217 13.2614ZM16.465 26.6045C16.465 27.4508 17.154 28.1402 17.9997 28.1402C18.8455 28.1402 19.5344 27.4508 19.5344 26.6045V24.5046C19.9937 24.0786 20.2513 23.4901 20.2513 22.8586C20.2513 21.6143 19.2431 20.6055 17.9997 20.6055C16.7563 20.6055 15.7481 21.6144 15.7481 22.8586C15.7481 23.4938 16.0058 24.0823 16.465 24.5046V26.6045ZM17.9997 21.506C18.7447 21.506 19.3514 22.1132 19.3514 22.8587C19.3514 23.2846 19.1554 23.6807 18.8119 23.9404C18.7017 24.0263 18.6345 24.1552 18.6345 24.2991V26.6083C18.6345 26.9576 18.347 27.2435 17.9997 27.2435C17.6506 27.2435 17.3649 26.9558 17.3649 26.6083V24.2954C17.3649 24.1571 17.2977 24.0226 17.1876 23.9366C16.844 23.6788 16.648 23.2865 16.648 22.8549C16.648 22.1132 17.2548 21.506 17.9997 21.506Z" fill="white"/>
</svg>
