<svg width="40" height="40" viewBox="0 0 40 40" fill="none" xmlns="http://www.w3.org/2000/svg">
<path d="M22.2059 38.5329C21.6994 38.5929 21.1796 38.6263 20.6598 38.6463V36.626C20.6598 36.2592 20.3599 35.9592 19.9933 35.9592C19.6268 35.9592 19.3269 36.2592 19.3269 36.626V38.6129C14.6018 37.9395 10.8431 30.2049 10.6698 20.6634H19.3269V23.3705C19.3269 23.7372 19.6268 24.0372 19.9933 24.0372C20.3599 24.0372 20.6598 23.7372 20.6598 23.3705V20.6634H23.3655C23.7321 20.6634 24.032 20.3633 24.032 19.9966C24.032 19.6299 23.7321 19.3298 23.3655 19.3298H20.6598V1.38022C25.0783 2.03366 28.8037 9.10815 29.2702 18.0296C29.2902 18.3963 29.6101 18.683 29.97 18.663C30.3366 18.643 30.6231 18.3296 30.6031 17.9629C30.2233 10.7551 27.8507 4.79411 24.5585 1.89364C32.4425 3.88063 38.3406 10.9018 38.6405 19.3298H36.6211C36.2546 19.3298 35.9547 19.6299 35.9547 19.9966C35.9547 20.3633 36.2546 20.6634 36.6211 20.6634H38.6405C38.6205 21.1834 38.5871 21.7035 38.5272 22.2103C38.4805 22.577 38.7404 22.9104 39.107 22.9571C39.4735 23.0104 39.8067 22.7437 39.8534 22.377C39.9467 21.5968 40 20.8034 40 20.0033C40 8.97479 31.0297 0 20.0067 0C8.98367 0 0 8.96813 0 19.9966C0 31.025 8.97034 39.9998 19.9933 39.9998C20.7931 39.9998 21.5928 39.9532 22.3659 39.8532C22.7324 39.8065 22.9923 39.4731 22.9457 39.1064C22.899 38.7396 22.5658 38.4729 22.1993 38.5263L22.2059 38.5329ZM10.6764 19.3298C10.8431 9.78826 14.6085 2.05367 19.3336 1.38022V19.3298H10.6764ZM15.3682 1.90698C11.8694 4.99415 9.47018 11.5352 9.34355 19.3298H1.35288C1.65278 10.9284 7.51749 3.92064 15.3682 1.90698ZM1.35288 20.6634H9.34355C9.47684 28.458 11.8694 34.9924 15.3682 38.0862C7.51749 36.0725 1.65278 29.0647 1.35288 20.6634Z" fill="white"/>
<path d="M29.9908 19.9971C24.4793 19.9971 19.9941 24.4845 19.9941 29.9987C19.9941 35.5129 24.4793 40.0003 29.9908 40.0003C35.5023 40.0003 39.9875 35.5129 39.9875 29.9987C39.9875 24.4845 35.5023 19.9971 29.9908 19.9971ZM29.9908 38.6668C25.2124 38.6668 21.327 34.7795 21.327 29.9987C21.327 25.2179 25.2124 21.3306 29.9908 21.3306C34.7692 21.3306 38.6546 25.2179 38.6546 29.9987C38.6546 34.7795 34.7692 38.6668 29.9908 38.6668Z" fill="white"/>
<path d="M34.1826 26.1911L27.9913 32.3855L25.7987 30.1918C25.5388 29.9317 25.1189 29.9317 24.859 30.1918C24.5991 30.4518 24.5991 30.8719 24.859 31.1319L27.5248 33.799C27.6581 33.9324 27.8247 33.9924 27.998 33.9924C28.1712 33.9924 28.3378 33.9257 28.4711 33.799L35.1356 27.1313C35.3955 26.8712 35.3955 26.4512 35.1356 26.1911C34.8757 25.9311 34.4558 25.9311 34.1959 26.1911H34.1826Z" fill="white"/>
</svg>
