<svg width="40" height="40" viewBox="0 0 40 40" fill="none" xmlns="http://www.w3.org/2000/svg">
<path fill-rule="evenodd" clip-rule="evenodd" d="M6.17383 28.5931L6.86675 21.5986C6.88693 21.4052 6.80453 21.2386 6.63971 21.1377C3.70998 19.3294 3.21051 15.2483 5.66259 12.7958C7.7531 10.7048 11.1421 10.7048 13.2307 12.7958C15.6828 15.2484 15.1816 19.3295 12.2536 21.1377C12.0888 21.2403 12.0064 21.4069 12.0249 21.5986L12.7178 28.5931C14.4282 28.6217 15.814 30.028 15.814 31.7438V33.0156C17.5093 33.024 18.8917 34.4118 18.8917 36.1091V37.8081C18.8917 39.0143 17.9061 40 16.7003 40H2.19139C0.983838 40 0 39.0142 0 37.8081V36.1091C0 34.4118 1.38244 33.024 3.07771 33.0156V31.7438C3.07602 30.028 4.46345 28.6217 6.17383 28.5931ZM7.91285 21.7028L7.23005 28.5931H11.6582L10.9754 21.7028C10.9165 21.1074 11.189 20.559 11.6986 20.2444C14.0582 18.7876 14.4467 15.5073 12.4823 13.5428C10.8039 11.864 8.08257 11.864 6.40603 13.5428C4.44167 15.5076 4.83015 18.788 7.18975 20.2444C7.69934 20.5573 7.9717 21.1074 7.91285 21.7028ZM4.13215 31.7419V33.0137H14.758V31.7419C14.758 30.5896 13.8145 29.6459 12.6624 29.6459H6.22795C5.0759 29.6476 4.13215 30.5913 4.13215 31.7419ZM15.7973 34.0701H3.09281C1.97271 34.0701 1.05444 34.9885 1.05444 36.1089V37.8079C1.05444 38.432 1.56739 38.9451 2.19134 38.9451H16.6985C17.3225 38.9451 17.8354 38.432 17.8354 37.8079V36.1089C17.8354 34.9885 16.9174 34.0701 15.7973 34.0701ZM8.05742 9.65318C8.7066 8.15601 10.2539 7.26949 11.8701 7.45622C12.2098 7.49491 12.4924 7.19716 12.452 6.86577C12.3696 6.14578 12.5008 5.42243 12.822 4.78491C13.8412 2.75621 16.4682 2.11528 18.3149 3.48795C18.584 3.68813 18.9793 3.59561 19.1205 3.24908C19.4098 2.59472 19.8824 2.03958 20.4744 1.65101C22.3732 0.402845 24.9714 1.16654 25.8816 3.27263C26.0144 3.57879 26.4097 3.68477 26.6771 3.48627C29.2671 1.56014 32.9084 3.67131 32.5381 6.87253C32.4994 7.21233 32.7971 7.49493 33.1284 7.45458C33.8482 7.37215 34.5714 7.50337 35.2088 7.82467C37.2522 8.85248 37.8678 11.4834 36.5055 13.3188C36.3053 13.5879 36.3978 13.9833 36.7443 14.1246C37.3985 14.4139 37.9535 14.8866 38.342 15.4787C39.5899 17.3779 38.828 19.9767 36.7207 20.8871C36.4147 21.02 36.3087 21.4153 36.5072 21.6828C36.9394 22.2649 37.1883 22.9596 37.2303 23.6745C37.3632 25.9522 35.4089 27.8094 33.1233 27.5469C32.7836 27.5082 32.5011 27.806 32.5414 28.1374C32.6238 28.8574 32.4926 29.5807 32.1714 30.2182C31.1438 32.2621 28.5135 32.8778 26.6785 31.5152C26.4094 31.315 26.0142 31.4075 25.8729 31.7541C25.5837 32.4084 25.1111 32.9636 24.5191 33.3521C23.3738 34.1058 21.882 34.1546 20.6879 33.4817C20.4357 33.3404 20.1161 33.4295 19.9731 33.6818C19.8319 33.9342 19.921 34.2538 20.1733 34.3968C22.4151 35.6618 25.249 34.9048 26.5677 32.6944C27.195 33.0443 27.8963 33.2479 28.6111 33.2899C31.3004 33.4464 33.5757 31.315 33.6179 28.6252C34.3344 28.6151 35.0408 28.4402 35.6815 28.1189C38.1017 26.9027 38.9947 23.9201 37.6862 21.5736C38.3035 21.2052 38.8282 20.7005 39.2217 20.1033C40.7084 17.8391 39.9937 14.8129 37.6862 13.4353C38.0361 12.8078 38.2396 12.1064 38.2816 11.3914C38.438 8.70158 36.3072 6.42569 33.6179 6.38349C33.5624 2.79707 29.701 0.564671 26.5678 2.31428C26.1994 1.69691 25.6949 1.17209 25.0962 0.778441C22.8324 -0.708604 19.8069 0.00630226 18.4296 2.31428C17.7989 1.95766 17.0993 1.7541 16.3828 1.71207C13.7003 1.55731 11.4165 3.68191 11.376 6.37849C9.521 6.40709 7.8392 7.51396 7.09414 9.23653C6.97978 9.50231 7.10255 9.81182 7.36828 9.92624C7.63401 10.0423 7.94345 9.91951 8.05784 9.65373L8.05742 9.65318ZM14.956 11.5776C18.5064 7.06278 25.2034 6.64894 29.2734 10.7214C33.0171 14.4659 33.0171 20.537 29.2734 24.2814C25.0537 28.502 18.0706 27.8695 14.6585 23.0265C14.492 22.7893 14.1624 22.7321 13.9253 22.8986C13.6881 23.0652 13.631 23.3948 13.7975 23.632C17.5866 29.0099 25.3365 29.7114 30.0187 25.0266C34.1744 20.8699 34.1744 14.1309 30.0187 9.9744C25.4928 5.4475 18.0577 5.92539 14.1272 10.9265C13.9473 11.1553 13.9877 11.4867 14.2164 11.6667C14.4451 11.845 14.7761 11.8064 14.956 11.5776ZM16.1703 18.6294L19.6332 22.093C19.8384 22.2982 20.173 22.2982 20.3782 22.093L28.8191 13.6503C29.0242 13.4434 29.0242 13.1103 28.8191 12.9051C28.6139 12.6998 28.2792 12.6998 28.074 12.9051L20.0065 20.9744L16.917 17.8842C16.7118 17.679 16.3771 17.679 16.1719 17.8842C15.965 18.0895 15.9651 18.4241 16.1703 18.6294Z" fill="white"/>
</svg>
