<svg width="40" height="40" viewBox="0 0 40 40" fill="none" xmlns="http://www.w3.org/2000/svg">
<path d="M27.9956 21.3301C24.3229 21.3301 21.3301 24.3229 21.3301 27.9957C21.3301 31.6685 24.3229 34.6614 27.9956 34.6614C31.6683 34.6614 34.6611 31.6685 34.6611 27.9957C34.6611 24.3229 31.6683 21.3301 27.9956 21.3301ZM27.9956 33.3282C25.0561 33.3282 22.6632 30.9353 22.6632 27.9957C22.6632 25.0562 25.0561 22.6632 27.9956 22.6632C30.9351 22.6632 33.328 25.0562 33.328 27.9957C33.328 30.9353 30.9351 33.3282 27.9956 33.3282Z" fill="white"/>
<path d="M4.88682 13.3645C4.54022 13.2445 4.16028 13.4312 4.0403 13.7778C3.92032 14.1244 4.10696 14.5043 4.45356 14.6243C5.83999 15.0976 7.45305 15.4575 9.24608 15.6908C9.27274 15.6908 9.30607 15.6908 9.33273 15.6908C9.66601 15.6908 9.94596 15.4442 9.99262 15.1109C10.0393 14.7443 9.78599 14.411 9.41938 14.3644C7.73967 14.1444 6.1666 13.7978 4.88682 13.3579V13.3645Z" fill="white"/>
<path d="M4.88682 24.6956C4.54022 24.5756 4.16028 24.7622 4.0403 25.1088C3.92032 25.4555 4.10696 25.8354 4.45356 25.9554C5.83999 26.4286 7.45305 26.7886 9.24608 27.0219C9.27274 27.0219 9.30607 27.0219 9.33273 27.0219C9.66601 27.0219 9.94596 26.7753 9.99262 26.442C10.0393 26.0754 9.78599 25.7421 9.41938 25.6954C7.73967 25.4755 6.1666 25.1288 4.88682 24.6889V24.6956Z" fill="white"/>
<path d="M16.4039 31.9151C15.6307 31.9684 14.8175 31.9951 13.9976 31.9951C6.53222 31.9951 1.33311 29.8887 1.33311 27.9957V19.0371C3.72603 20.9701 8.97847 21.9966 13.9976 21.9966C14.7908 21.9966 15.6107 21.9699 16.4305 21.9233C16.7971 21.9033 17.0771 21.5833 17.0571 21.2167C17.0371 20.8501 16.7238 20.5702 16.3505 20.5902C15.5573 20.6368 14.7641 20.6635 13.9976 20.6635C6.53222 20.6635 1.33311 18.5571 1.33311 16.6641V7.70548C3.72603 9.63851 8.97847 10.665 13.9976 10.665C19.0168 10.665 24.2692 9.63851 26.6621 7.70548V13.9978C26.6621 14.3645 26.9621 14.6644 27.3287 14.6644C27.6953 14.6644 27.9952 14.3645 27.9952 13.9978V5.33251C27.9952 1.86638 20.7831 0 13.9976 0C7.2121 0 0 1.86638 0 5.33251V27.9957C0 31.4618 7.2121 33.3282 13.9976 33.3282C14.8508 33.3282 15.6907 33.3015 16.4972 33.2482C16.8638 33.2215 17.1437 32.9083 17.1171 32.5416C17.0904 32.175 16.7905 31.8951 16.4039 31.9217V31.9151ZM13.9976 1.33313C21.463 1.33313 26.6621 3.43947 26.6621 5.33251C26.6621 7.22555 21.463 9.33189 13.9976 9.33189C6.53222 9.33189 1.33311 7.22555 1.33311 5.33251C1.33311 3.43947 6.53222 1.33313 13.9976 1.33313Z" fill="white"/>
<path d="M38.9597 25.6287L38.1465 25.3821C38.0931 25.3621 38.0731 25.3021 38.0665 25.2888C37.8332 24.4156 37.4866 23.5757 37.0333 22.7892C37.0067 22.7425 37.0067 22.6959 37.02 22.6625L37.4199 21.916C37.7265 21.3494 37.6265 20.6628 37.1666 20.2029L35.7802 18.8165C35.3336 18.3699 34.6271 18.2632 34.0672 18.5632L33.3206 18.9631C33.3206 18.9631 33.2406 18.9764 33.194 18.9498C32.4074 18.4965 31.5609 18.1432 30.6877 17.9099C30.6411 17.8966 30.6011 17.8699 30.5944 17.83L30.3545 17.0234C30.1678 16.4035 29.6146 15.9902 28.968 15.9902H27.0084C26.3618 15.9902 25.8086 16.4035 25.6219 17.0234L25.382 17.83C25.3686 17.8699 25.3353 17.8966 25.2886 17.9099C24.4088 18.1432 23.5689 18.4965 22.7824 18.9498C22.7358 18.9764 22.6891 18.9764 22.6558 18.9631L21.9159 18.5632C21.356 18.2632 20.6561 18.3632 20.2029 18.8165L18.8164 20.2029C18.3632 20.6562 18.2632 21.3494 18.5631 21.916L18.9631 22.6625C18.9831 22.6959 18.9764 22.7425 18.9497 22.7892C18.4965 23.5757 18.1499 24.4156 17.9166 25.2888C17.9166 25.3088 17.8899 25.3688 17.8366 25.3821L17.0234 25.6287C16.4035 25.8154 15.9902 26.3686 15.9902 27.0152V28.9749C15.9902 29.6081 16.4168 30.1814 17.0234 30.3614L17.8433 30.608C17.8832 30.6213 17.9099 30.6546 17.9232 30.7013C18.1565 31.5678 18.5031 32.4077 18.9564 33.1942C18.9831 33.2409 18.9831 33.2876 18.9697 33.3209L18.5631 34.0741C18.2632 34.634 18.3632 35.3339 18.8164 35.7872L20.2029 37.1736C20.6494 37.6202 21.356 37.7269 21.9159 37.4269L22.6758 37.0203C22.7091 37.0003 22.7557 37.007 22.8024 37.0337C23.5823 37.4803 24.4155 37.8269 25.2886 38.0602C25.3353 38.0735 25.3753 38.1068 25.382 38.1402L25.6286 38.9667C25.8152 39.5866 26.3685 39.9999 27.015 39.9999H28.9747C29.6212 39.9999 30.1745 39.5866 30.3611 38.9667L30.6077 38.1402C30.6211 38.1002 30.6544 38.0735 30.7011 38.0602C31.5676 37.8269 32.4008 37.4803 33.1873 37.0337C33.2273 37.007 33.2806 37.007 33.3139 37.0203L34.0738 37.4269C34.6337 37.7269 35.3403 37.6269 35.7869 37.1736L37.1733 35.7872C37.6199 35.3406 37.7265 34.634 37.4266 34.0741L37.02 33.3142C37 33.2809 37.0067 33.2342 37.0333 33.1876C37.4866 32.4077 37.8332 31.5678 38.0665 30.6946C38.0798 30.648 38.1065 30.608 38.1465 30.6013L38.9663 30.3547C39.5729 30.1747 39.9995 29.6015 39.9995 28.9682V27.0085C39.9995 26.362 39.5862 25.8087 38.9663 25.6221L38.9597 25.6287ZM38.6597 28.9749C38.6597 29.0282 38.6264 29.0682 38.5797 29.0882L37.7599 29.3348C37.2733 29.4815 36.9067 29.8614 36.7734 30.3614C36.5667 31.1212 36.2668 31.8478 35.8735 32.5277C35.6136 32.9743 35.6069 33.5075 35.8468 33.9541L36.2534 34.714C36.2801 34.7607 36.2668 34.814 36.2335 34.8473L34.847 36.2338C34.8137 36.2671 34.7537 36.2804 34.7137 36.2538L33.9538 35.8472C33.5072 35.6072 32.9807 35.6205 32.5341 35.8738C31.8542 36.2671 31.1277 36.5671 30.3678 36.7737C29.8679 36.907 29.4879 37.2736 29.3413 37.7602L29.0947 38.5868C29.0813 38.6334 29.0347 38.6667 28.9814 38.6667H27.0217C26.9684 38.6667 26.9284 38.6334 26.9084 38.5868L26.6617 37.7602C26.5151 37.2803 26.1352 36.907 25.6353 36.7737C24.8821 36.5737 24.1488 36.2671 23.469 35.8738C23.2357 35.7405 22.9824 35.6739 22.7291 35.6739C22.4958 35.6739 22.2625 35.7339 22.0492 35.8472L21.2893 36.2538C21.2427 36.2804 21.1893 36.2671 21.156 36.2338L19.7696 34.8473C19.7363 34.814 19.7229 34.754 19.7496 34.714L20.1562 33.9608C20.3962 33.5142 20.3828 32.9809 20.1295 32.5344C19.7363 31.8545 19.4296 31.1212 19.2297 30.368C19.0964 29.8681 18.7298 29.4882 18.2432 29.3415L17.4233 29.0949C17.3767 29.0815 17.3433 29.0349 17.3433 28.9882V27.0285C17.3433 26.9752 17.3767 26.9352 17.4233 26.9152L18.2365 26.6686C18.7231 26.5219 19.0897 26.142 19.223 25.6421C19.423 24.8822 19.7296 24.149 20.1229 23.4624C20.3828 23.0158 20.3895 22.4826 20.1495 22.036L19.7496 21.2894C19.7229 21.2428 19.7363 21.1894 19.7696 21.1561L21.156 19.7697C21.1893 19.7363 21.2427 19.723 21.296 19.7497L22.0359 20.1496C22.4825 20.3896 23.0157 20.3762 23.4623 20.1229C24.1488 19.723 24.8821 19.423 25.6486 19.2164C26.1485 19.0831 26.5351 18.7165 26.6751 18.2299L26.915 17.4233C26.9284 17.3767 26.975 17.3434 27.0284 17.3434H28.988C29.0413 17.3434 29.0813 17.3767 29.1013 17.4233L29.3413 18.2299C29.4879 18.7165 29.8679 19.0831 30.3678 19.2164C31.1343 19.423 31.8675 19.7297 32.5541 20.1229C33.0007 20.3829 33.5339 20.3896 33.9805 20.1496L34.727 19.7497C34.7737 19.723 34.827 19.7363 34.8604 19.7697L36.2468 21.1561C36.2801 21.1894 36.2934 21.2494 36.2668 21.2894L35.8668 22.036C35.6269 22.4826 35.6402 23.0158 35.8935 23.4624C36.2868 24.149 36.5934 24.8822 36.7934 25.6421C36.9267 26.142 37.2933 26.5286 37.7799 26.6686L38.593 26.9152C38.6397 26.9285 38.673 26.9752 38.673 27.0285V28.9882L38.6597 28.9749Z" fill="white"/>
</svg>
